<svg xmlns="http://www.w3.org/2000/svg" viewBox="0 0 132 66" role="img" aria-label="eye tilt-balanced">
  <!-- anchors: inner (13,33), outer (119,33), upper-center (66,16), lower-center (66,50); iris r=17, hidden-top≈3 -->
  <defs>
    <clipPath id="clip_tilt_balanced"><path d="M13 33 C27 26 46 16 66 16 C86 16 105 26 119 33 C105 40 86 50 66 50 C46 50 27 40 13 33 Z"/></clipPath>
    <radialGradient id="sclera_tilt_balanced" cx="52%" cy="45%" r="65%"><stop offset="0" stop-color="#fffefa"/><stop offset=".78" stop-color="#f8f4ea"/><stop offset="1" stop-color="#e8ddd1"/></radialGradient>
    <radialGradient id="iris_tilt_balanced" cx="38%" cy="32%" r="69%"><stop offset="0" stop-color="#c9a77a"/><stop offset=".5" stop-color="#987046"/><stop offset=".82" stop-color="#704d2f"/><stop offset="1" stop-color="#3f2c20"/></radialGradient>
    <linearGradient id="lash_tilt_balanced" x1="0" y1="0" x2="0" y2="1"><stop stop-color="#211915"/><stop offset="1" stop-color="#554438"/></linearGradient>
  </defs>

  <path d="M13 33 C27 26 46 16 66 16 C86 16 105 26 119 33 C105 40 86 50 66 50 C46 50 27 40 13 33 Z" fill="url(#sclera_tilt_balanced)" stroke="#9d8978" stroke-width=".7"/>
  <g clip-path="url(#clip_tilt_balanced)">
    <path d="M13 33 C27 26 46 16 66 16 C86 16 105 26 119 33 L119 39 C99 31 86 21 66 21 C46 21 29 32 13 36Z" fill="#715b4d" opacity=".12"/>
    <circle cx="66" cy="30" r="17" fill="url(#iris_tilt_balanced)"/>
    <g stroke="#d5b17c" stroke-width=".55" opacity=".18" stroke-linecap="round">
      <path d="M74 30L80.5 30 M71.7 35.7l4.6 4.6 M66 38v6.5 M60.3 35.7l-4.6 4.6 M58 30h-6.5 M60.3 24.3l-4.6-4.6 M66 22v-6.5 M71.7 24.3l4.6-4.6"/>
    </g>
    <circle cx="66" cy="30" r="17" fill="none" stroke="#39281d" stroke-width="1.8" opacity=".9"/>
    <circle cx="66" cy="30" r="6.1" fill="#171312"/>
    <circle cx="60" cy="20.5" r="1.8" fill="#fff" opacity=".9"/>
    <circle cx="73" cy="39" r=".7" fill="#fff" opacity=".42"/>
  </g>
  <path d="M13 33 C29 40 47 50 66 50 C86 50 104 40 119 33" fill="none" stroke="#9f8b7b" stroke-width="1.05" stroke-linecap="round"/>
  <path d="M21 36.5 C38 48.3 51 48.8 66 48.8 C82 48.8 101 36.6 114 34.2" fill="none" stroke="#fff" stroke-width=".7" opacity=".72" stroke-linecap="round"/>
  <path d="M13 33 C27 26 46 16 66 16 C86 16 105 26 119 33 C103 32.2 85 18.15 66 18.15 C45 18.15 28 31.3 13 33Z" fill="url(#lash_tilt_balanced)"/>
  <path d="M13 33 C27 26 46 16 66 16 C86 16 105 26 119 33" fill="none" stroke="#2b211b" stroke-width=".85" stroke-linecap="round"/>
  <path d="M18 32 C32 24 48 20 66 20 C85 20 102 26 116 32" fill="none" stroke="#a28c79" stroke-width=".8" opacity=".34" stroke-linecap="round"/>
  <g fill="none" stroke="#31251f" stroke-width=".82" stroke-linecap="round" opacity=".78"><path d="M86 17.4q3-2.1 5.4-1.2 M97 19.2q2.8-2.2 5.1-1.1 M107 29.5q2.4-1.8 4.4-.8"/></g>
  <path d="M13 33 q-4.7 1.8-3.2 5.2 3.1-.8 5.6-3.6-1.1-.6-2.4-1.6Z" fill="#d99589"/><path d="M10.7 36.7q2.1-1.4 4.1-1.8" fill="none" stroke="#b8736c" stroke-width=".65"/>
</svg>
